<svg xmlns="http://www.w3.org/2000/svg" viewBox="0 0 1200 675" role="img" aria-labelledby="title desc"><title id="title">PySpark for beginners thumbnail</title><desc id="desc">A minimal logo-style thumbnail for an article introducing PySpark: SparkSession, DataFrames, and lazy execution.</desc><rect width="1200" height="675" fill="#f7f8fa" /><rect x="42" y="42" width="1116" height="591" rx="28" fill="#ffffff" stroke="#e3e6ea" stroke-width="2" /><g font-family="Jost, -apple-system, BlinkMacSystemFont, 'Segoe UI', sans-serif"><text x="94" y="150" font-size="40" font-weight="600" fill="#59636e">Your first distributed DataFrame</text><text x="90" y="392" font-size="150" font-weight="700" fill="#1b1f24">PySpark</text><rect x="100" y="424" width="420" height="12" rx="6" fill="#0067c0" /><text x="98" y="506" font-size="35" font-weight="500" fill="#59636e">SparkSession · DataFrame · lazy</text></g><g transform="translate(800 168)"><rect x="0" y="0" width="120" height="34" rx="8" fill="#ffffff" stroke="#0067c0" stroke-width="4" /><text x="60" y="23" font-family="'SFMono-Regular', Consolas, Menlo, monospace" font-size="20" fill="#0067c0" text-anchor="middle">df</text><path d="M60 34V60M60 60C60 78 20 78 20 96M60 60H60M60 60C60 78 100 78 100 96M60 60V96" fill="none" stroke="#c7ccd2" stroke-width="5" stroke-linecap="round" /><rect x="-30" y="96" width="80" height="56" rx="10" fill="#e3f0fa" stroke="#0067c0" stroke-width="3" /><text x="10" y="130" font-family="'SFMono-Regular', Consolas, Menlo, monospace" font-size="18" fill="#1b1f24" text-anchor="middle">p0</text><rect x="62" y="96" width="80" height="56" rx="10" fill="#e6f4e6" stroke="#8fbc8f" stroke-width="3" /><text x="102" y="130" font-family="'SFMono-Regular', Consolas, Menlo, monospace" font-size="18" fill="#1b1f24" text-anchor="middle">p1</text><rect x="154" y="96" width="80" height="56" rx="10" fill="#fdeede" stroke="#e0b184" stroke-width="3" /><text x="194" y="130" font-family="'SFMono-Regular', Consolas, Menlo, monospace" font-size="18" fill="#1b1f24" text-anchor="middle">p2</text><path d="M10 152C10 190 100 190 100 210M102 152V210M194 152C194 190 100 190 100 210" fill="none" stroke="#c7ccd2" stroke-width="5" stroke-linecap="round" /><rect x="30" y="210" width="140" height="46" rx="10" fill="#0067c0" /><text x="100" y="240" font-family="'SFMono-Regular', Consolas, Menlo, monospace" font-size="20" fill="#ffffff" text-anchor="middle">show()</text></g></svg>